<?xml version="1.0" encoding="UTF-8" standalone="no"?>
<!-- Created with Inkscape (http://www.inkscape.org/) -->

<svg
   xmlns:dc="http://purl.org/dc/elements/1.1/"
   xmlns:cc="http://creativecommons.org/ns#"
   xmlns:rdf="http://www.w3.org/1999/02/22-rdf-syntax-ns#"
   xmlns:svg="http://www.w3.org/2000/svg"
   xmlns="http://www.w3.org/2000/svg"
   xmlns:sodipodi="http://sodipodi.sourceforge.net/DTD/sodipodi-0.dtd"
   xmlns:inkscape="http://www.inkscape.org/namespaces/inkscape"
   width="64"
   height="64"
   viewBox="0 0 64 64"
   id="svg2"
   version="1.1"
   inkscape:version="0.91 r13725"
   sodipodi:docname="item.svg"
   inkscape:export-filename="~/dev/qt_sandbox/data/img/item.png"
   inkscape:export-xdpi="90"
   inkscape:export-ydpi="90">
  <defs
     id="defs4" />
  <sodipodi:namedview
     id="base"
     pagecolor="#202020"
     bordercolor="#666666"
     borderopacity="1.0"
     inkscape:pageopacity="0"
     inkscape:pageshadow="2"
     inkscape:zoom="11.313708"
     inkscape:cx="31.20128"
     inkscape:cy="30.572084"
     inkscape:document-units="px"
     inkscape:current-layer="layer1"
     showgrid="true"
     units="px"
     inkscape:object-nodes="true"
     inkscape:snap-smooth-nodes="true"
     inkscape:window-width="1918"
     inkscape:window-height="1059"
     inkscape:window-x="0"
     inkscape:window-y="19"
     inkscape:window-maximized="1"
     showborder="true"
     borderlayer="true"
     inkscape:showpageshadow="false">
    <inkscape:grid
       type="xygrid"
       id="grid3336"
       empspacing="4"
       visible="false"
       spacingx="0.25"
       spacingy="0.25" />
  </sodipodi:namedview>
  <metadata
     id="metadata7">
    <rdf:RDF>
      <cc:Work
         rdf:about="">
        <dc:format>image/svg+xml</dc:format>
        <dc:type
           rdf:resource="http://purl.org/dc/dcmitype/StillImage" />
        <dc:title />
      </cc:Work>
    </rdf:RDF>
  </metadata>
  <g
     inkscape:label="monster"
     inkscape:groupmode="layer"
     id="layer1"
     transform="translate(0,-988.36216)">
    <g
       id="g4265"
       transform="matrix(1,0,0,1.1111098,0,-111.59452)"
       style="fill:#0088aa">
      <path
         sodipodi:nodetypes="cccccccc"
         inkscape:connector-curvature="0"
         id="path4255"
         d="m 10,1016.3622 c -1,-4 -3,-8 0,-13.0001 4,-0.9999 8,10e-5 11,1.0001 7,-2 15,-2 22,0 3,-1 7,-2 10.541998,-0.776 C 57,1008.3622 55,1012.3622 54,1016.3622 c 10,20 -12,24 -22,24 -10,0 -32,-4 -22,-24 z"
         style="fill:#0088aa;fill-opacity:1;fill-rule:evenodd;stroke:#000000;stroke-width:0.94868392px;stroke-linecap:butt;stroke-linejoin:miter;stroke-opacity:1" />
      <path
         sodipodi:nodetypes="cc"
         inkscape:connector-curvature="0"
         id="path4257"
         d="m 18,1006.3622 c 1,-1 3,-2 3,-2"
         style="fill:#0088aa;fill-rule:evenodd;stroke:#000000;stroke-width:0.94868392;stroke-linecap:round;stroke-linejoin:round;stroke-miterlimit:4;stroke-dasharray:none;stroke-opacity:1" />
      <path
         style="fill:#0088aa;fill-rule:evenodd;stroke:#000000;stroke-width:0.94868392;stroke-linecap:round;stroke-linejoin:round;stroke-miterlimit:4;stroke-dasharray:none;stroke-opacity:1"
         d="m 46,1006.3622 c -1,-1 -3,-2 -3,-2"
         id="path4259"
         inkscape:connector-curvature="0"
         sodipodi:nodetypes="cc" />
      <path
         style="fill:#0088aa;fill-rule:evenodd;stroke:#000000;stroke-width:0.94868392;stroke-linecap:round;stroke-linejoin:round;stroke-miterlimit:4;stroke-dasharray:none;stroke-opacity:1"
         d="m 52,1013.3622 c 1,1 2,3 2,3"
         id="path4261"
         inkscape:connector-curvature="0"
         sodipodi:nodetypes="cc" />
      <path
         sodipodi:nodetypes="cc"
         inkscape:connector-curvature="0"
         id="path4263"
         d="m 12,1013.3622 c -1,1 -2,3 -2,3"
         style="fill:#0088aa;fill-rule:evenodd;stroke:#000000;stroke-width:0.94868392;stroke-linecap:round;stroke-linejoin:round;stroke-miterlimit:4;stroke-dasharray:none;stroke-opacity:1" />
    </g>
    <g
       id="g4347"
       transform="translate(-61.875,-1.5614123)">
      <path
         style="fill:none;fill-rule:evenodd;stroke:#000000;stroke-width:0.5;stroke-linecap:round;stroke-linejoin:miter;stroke-miterlimit:4;stroke-dasharray:none;stroke-opacity:1"
         d="m 91.25,1032.1122 c 0.25,0 1.25,1 1.25,1.25"
         id="path4282"
         inkscape:connector-curvature="0"
         sodipodi:nodetypes="cc" />
      <path
         sodipodi:nodetypes="cc"
         inkscape:connector-curvature="0"
         id="path4284"
         d="m 97.25,1032.1122 c -0.25,0 -1.25,1 -1.25,1.25"
         style="fill:none;fill-rule:evenodd;stroke:#000000;stroke-width:0.5;stroke-linecap:round;stroke-linejoin:miter;stroke-miterlimit:4;stroke-dasharray:none;stroke-opacity:1" />
      <g
         id="g4340">
        <path
           style="fill:#c83771;fill-opacity:1;fill-rule:evenodd;stroke:#000000;stroke-width:0.5;stroke-linecap:round;stroke-linejoin:round;stroke-miterlimit:4;stroke-dasharray:none;stroke-opacity:1"
           d="m 77,1033.3622 c 4.467961,1.3373 9.143317,1.9746 14,2 0.749778,0.9298 2.5,1.5 3.5,1.5 1,0 2.023215,-0.2886 3.5,-1.5 4.74485,-0.3625 9.35741,-0.8228 13,-2 -4.27994,4.7642 -9.65903,8.0043 -17,8 -6.999999,0 -13.25,-3.5 -17,-8 z"
           id="path4286"
           inkscape:connector-curvature="0"
           sodipodi:nodetypes="ccsccsc" />
        <path
           style="fill:#ffffff;fill-opacity:1;stroke:#000000;stroke-width:0.5;stroke-linecap:round;stroke-linejoin:round;stroke-miterlimit:4;stroke-dasharray:none;stroke-opacity:1"
           d="M 80.523438,45.900391 C 79.335221,45.645923 78.160681,45.347402 77,45 c 0.750283,0.90034 1.604597,1.758337 2.541016,2.558594"
           transform="translate(0,988.36216)"
           id="path4288"
           inkscape:connector-curvature="0"
           sodipodi:nodetypes="ccc" />
        <path
           style="fill:#ffffff;fill-opacity:1;stroke:#000000;stroke-width:0.5;stroke-linecap:round;stroke-linejoin:round;stroke-miterlimit:4;stroke-dasharray:none;stroke-opacity:1"
           d="M 108.40625,47.560547 C 109.31481,46.770581 110.17852,45.914425 111,45 c -1.10925,0.358484 -2.31654,0.643714 -3.58203,0.886719"
           transform="translate(0,988.36216)"
           id="path4293"
           inkscape:connector-curvature="0"
           sodipodi:nodetypes="ccc" />
        <path
           style="fill:none;fill-rule:evenodd;stroke:#000000;stroke-width:0.5;stroke-linecap:round;stroke-linejoin:round;stroke-miterlimit:4;stroke-dasharray:none;stroke-opacity:1"
           d="m 77,1033.3622 c -0.75,-0.25 -1.75,-1 -2,-1.5"
           id="path4298"
           inkscape:connector-curvature="0"
           sodipodi:nodetypes="cc" />
        <path
           sodipodi:nodetypes="cc"
           inkscape:connector-curvature="0"
           id="path4300"
           d="m 111,1033.3622 c 0.75,-0.25 1.75,-1 2,-1.5"
           style="fill:none;fill-rule:evenodd;stroke:#000000;stroke-width:0.5;stroke-linecap:round;stroke-linejoin:round;stroke-miterlimit:4;stroke-dasharray:none;stroke-opacity:1" />
      </g>
      <g
         id="g4321">
        <path
           sodipodi:nodetypes="cc"
           inkscape:connector-curvature="0"
           id="path4280"
           d="m 105.25,1017.6122 c -1,0.75 -2.71489,2.386 -3.5,3.75"
           style="fill:none;fill-rule:evenodd;stroke:#000000;stroke-width:0.5;stroke-linecap:round;stroke-linejoin:miter;stroke-miterlimit:4;stroke-dasharray:none;stroke-opacity:1" />
        <path
           style="fill:#ffffff;fill-opacity:1;fill-rule:evenodd;stroke:#000000;stroke-width:0.5;stroke-linecap:butt;stroke-linejoin:miter;stroke-miterlimit:4;stroke-dasharray:none;stroke-opacity:1"
           d="m 113.5,1028.1122 c -3.72344,2.1502 -7.61443,2.0386 -11.5,2 -0.20608,-5.1906 2.45634,-9.2259 8.25,-12 0.75,0.5 3.48327,2.5852 3.25,10 z"
           id="path4310"
           inkscape:connector-curvature="0"
           sodipodi:nodetypes="cccc" />
        <path
           style="fill:#000a46;fill-opacity:1;stroke:#000000;stroke-width:0.44253102;stroke-linecap:round;stroke-linejoin:round;stroke-miterlimit:4;stroke-dasharray:none;stroke-opacity:1"
           d="M 108.62695,30.617188 C 103.96588,33.340517 101.81437,37.074586 102,41.75 c 2.86701,0.02848 5.73563,0.08973 8.53906,-0.740234 A 11.5,11.750023 0 0 0 111,37.75 11.5,11.750023 0 0 0 108.62695,30.617188 Z"
           transform="translate(0,988.36216)"
           id="path4312"
           inkscape:connector-curvature="0" />
        <ellipse
           style="fill:#ffffff;fill-opacity:1;stroke:none;stroke-width:0.5;stroke-linecap:round;stroke-linejoin:round;stroke-miterlimit:4;stroke-dasharray:none;stroke-opacity:1"
           id="path4317"
           cx="105.75"
           cy="1025.6747"
           rx="1"
           ry="2.0625112" />
        <path
           style="fill:none;fill-rule:evenodd;stroke:#000000;stroke-width:0.5;stroke-linecap:round;stroke-linejoin:round;stroke-miterlimit:4;stroke-dasharray:none;stroke-opacity:1"
           d="m 110.25,1018.1122 c 0.5,-0.25 1.25,-0.5 1.5,-0.5"
           id="path4319"
           inkscape:connector-curvature="0"
           sodipodi:nodetypes="cc" />
      </g>
      <g
         transform="matrix(-1,0,0,1,187.75,-0.37503382)"
         id="g4328">
        <path
           style="fill:none;fill-rule:evenodd;stroke:#000000;stroke-width:0.5;stroke-linecap:round;stroke-linejoin:miter;stroke-miterlimit:4;stroke-dasharray:none;stroke-opacity:1"
           d="m 105.25,1017.6122 c -1,0.75 -2.71489,2.386 -3.5,3.75"
           id="path4330"
           inkscape:connector-curvature="0"
           sodipodi:nodetypes="cc" />
        <path
           sodipodi:nodetypes="cccc"
           inkscape:connector-curvature="0"
           id="path4332"
           d="m 113.5,1028.1122 c -3.72344,2.1502 -7.61443,2.0386 -11.5,2 -0.20608,-5.1906 2.45634,-9.2259 8.25,-12 0.75,0.5 3.48327,2.5852 3.25,10 z"
           style="fill:#ffffff;fill-opacity:1;fill-rule:evenodd;stroke:#000000;stroke-width:0.5;stroke-linecap:butt;stroke-linejoin:miter;stroke-miterlimit:4;stroke-dasharray:none;stroke-opacity:1" />
        <path
           inkscape:connector-curvature="0"
           id="path4334"
           transform="translate(0,988.36216)"
           d="M 108.62695,30.617188 C 103.96588,33.340517 101.81437,37.074586 102,41.75 c 2.86701,0.02848 5.73563,0.08973 8.53906,-0.740234 A 11.5,11.750023 0 0 0 111,37.75 11.5,11.750023 0 0 0 108.62695,30.617188 Z"
           style="fill:#000a46;fill-opacity:1;stroke:#000000;stroke-width:0.44253102;stroke-linecap:round;stroke-linejoin:round;stroke-miterlimit:4;stroke-dasharray:none;stroke-opacity:1" />
        <ellipse
           ry="2.0625112"
           rx="1"
           cy="1025.6747"
           cx="105.75"
           id="ellipse4336"
           style="fill:#ffffff;fill-opacity:1;stroke:none;stroke-width:0.5;stroke-linecap:round;stroke-linejoin:round;stroke-miterlimit:4;stroke-dasharray:none;stroke-opacity:1" />
        <path
           sodipodi:nodetypes="cc"
           inkscape:connector-curvature="0"
           id="path4338"
           d="m 110.25,1018.1122 c 0.5,-0.25 1.25,-0.5 1.5,-0.5"
           style="fill:none;fill-rule:evenodd;stroke:#000000;stroke-width:0.5;stroke-linecap:round;stroke-linejoin:round;stroke-miterlimit:4;stroke-dasharray:none;stroke-opacity:1" />
      </g>
    </g>
  </g>
</svg>
